<?xml version="1.0" encoding="UTF-8" standalone="no"?>
<svg
   xmlns:dc="http://purl.org/dc/elements/1.1/"
   xmlns:cc="http://creativecommons.org/ns#"
   xmlns:rdf="http://www.w3.org/1999/02/22-rdf-syntax-ns#"
   xmlns:svg="http://www.w3.org/2000/svg"
   xmlns="http://www.w3.org/2000/svg"
   xmlns:sodipodi="http://sodipodi.sourceforge.net/DTD/sodipodi-0.dtd"
   xmlns:inkscape="http://www.inkscape.org/namespaces/inkscape"
   version="1.1"
   id="svg833"
   width="165.33333"
   height="165.33333"
   viewBox="0 0 165.33333 165.33333"
   sodipodi:docname="img.svg"
   inkscape:version="1.0.2 (e86c870879, 2021-01-15)">
  <metadata
     id="metadata839">
    <rdf:RDF>
      <cc:Work
         rdf:about="">
        <dc:format>image/svg+xml</dc:format>
        <dc:type
           rdf:resource="http://purl.org/dc/dcmitype/StillImage" />
        <dc:title></dc:title>
      </cc:Work>
    </rdf:RDF>
  </metadata>
  <defs
     id="defs837" />
  <sodipodi:namedview
     pagecolor="#ffffff"
     bordercolor="#666666"
     borderopacity="1"
     objecttolerance="10"
     gridtolerance="10"
     guidetolerance="10"
     inkscape:pageopacity="0"
     inkscape:pageshadow="2"
     inkscape:window-width="1920"
     inkscape:window-height="1001"
     id="namedview835"
     showgrid="false"
     inkscape:zoom="0.66245342"
     inkscape:cx="263.85713"
     inkscape:cy="143.11681"
     inkscape:window-x="-9"
     inkscape:window-y="-9"
     inkscape:window-maximized="1"
     inkscape:current-layer="g841"
     inkscape:lockguides="false" />
  <g
     inkscape:groupmode="layer"
     inkscape:label="Image"
     id="g841">
    <g
       id="g845"
       transform="matrix(7.2389362,0,0,7.2986813,-1908.7327,-1730.8623)">
      <path
         style="fill:#00ff00;fill-opacity:1;stroke-width:1.33333"
         d="m 278.40081,325.82411 c -1.07778,-1.07777 -1.6,-7.17037 -1.6,-18.66667 0,-10.48889 -0.51389,-17.06666 -1.33333,-17.06666 -0.79451,0 -2.17303,5.07476 -2.17303,12.55761 0,13.62239 0.19513,16.77572 -2.58938,16.77572 -3.29604,0 -4.56818,-5.00057 -4.81126,-18.91235 -0.13218,-7.56487 -0.74769,-11.93531 -1.43305,-8.32509 -2.0085,10.58001 -1.15637,14.04189 -4.48235,13.56894 -2.71006,-0.38536 -2.54064,-1.15381 -2.8722,-10.3315 -0.57017,-15.78263 -2.65625,-16.81672 -3.57919,-0.74754 -0.76444,13.30965 -0.25245,16.10841 -2.87906,16.48329 -3.73849,0.53358 -4.4456,-3.263 -4.76222,-25.56908 -0.23191,-16.33759 -0.29833,-16.74808 -1,-6.17984 -0.62122,9.35646 -1.15569,11.3971 -3.08105,11.76368 -3.5225,0.67068 -4.96846,-4.85252 -5.2806,-20.17064 l -0.27673,-13.57987 -1.32221,12.07667 c -1.40176,12.80316 -1.19714,15.99339 -5.41909,11.77144 -1.72242,-1.72242 -2.03542,-7.24524 -2.01817,-35.61001 0.0112,-18.46429 1.28443,-31.33107 1.91107,-32.31989 0.62665,-0.98882 1.03002,-1.5387 2.40881,-1.27597 2.14512,0.40875 1.79207,-0.87915 3.03753,8.74846 l 1.4587,11.27597 1.44165,-12.95739 c 1.62264,-14.58409 0.25962,-17.29506 3.74968,-16.63297 1.76992,0.33576 -0.2844,6.22225 1.97812,9.885 2.88601,4.67209 2.23752,-1.92011 2.70336,-14.56204 0.6549,-17.77253 1.30701,-18.38643 5.2821,-15.0874 1.58726,1.31731 1.3494,0.99797 1.3494,10.70912 0,8.04853 1.14335,13.47841 1.99626,12.95128 0.73333,-0.45322 1.99624,-5.88744 1.99624,-10.88769 0,-6.72651 0.73455,-6.23974 2.32106,-7.55642 3.17853,-2.63795 1.72408,2.83204 4.75708,10.61578 1.63244,4.1894 1.724,-3.61619 2.14905,-11.52674 0.56759,-10.56348 1.60139,-12.40538 3.03745,-13.29229 4.00618,-2.47424 2.06349,5.19764 3.16834,14.79937 0.85126,7.3979 2.43959,9.5424 3.23369,9.5424 0.81707,0 1.33333,-6.39003 1.33333,-16.50341 0,-13.24464 0.36189,-13.79102 2.01232,-15.16076 3.94101,-3.27075 4.04728,-2.39445 4.84421,15.35011 0.62808,13.98514 2.03978,15.08285 2.23744,6.08977 0.27769,-12.63475 0.88355,-10.24768 3.44386,-11.92706 2.80864,-1.84226 3.07193,-0.64443 3.07193,12.88287 0,7.03841 1.64897,12.50966 2.43818,12.50966 0.73334,0 1.95206,-3.80105 1.95206,-7.74459 0,-4.83436 0.71411,-5.95829 2.10069,-7.10906 3.32627,-2.76055 -1.5913,-0.25971 2.72402,9.56824 l 2.74753,11.01273 2.68861,-13.98872 c 0.47991,-2.49694 -0.20888,-13.84575 2.90856,-13.84575 3.48284,0 -2.90135,5.3584 2.20519,23.27456 3.41549,11.98316 2.67294,17.19036 3.70233,10.12949 1.16243,-7.97347 0.39539,-14.79277 3.68083,-13.53203 1.34499,0.51612 2.2246,5.03239 2.55709,16.20621 0.68721,23.09484 3.88619,24.45231 4.76978,7.6641 0.65497,-12.44444 -0.20294,-13.63893 3.07192,-13.63893 0,0 1.56901,0.0379 1.56557,1.14905 -0.0196,6.34431 1.94454,34.28017 1.94454,34.28017 l -0.20312,36.58855 -3.13021,0.0781 c -3.28787,0.0821 -3.34223,-0.17778 -4,-13.33333 -0.85827,-17.16537 -3.02122,-12.02765 -3.04621,7.70851 -0.015,11.81065 0.007,14.51823 -1.71008,15.17704 -3.16094,1.21297 -4.63441,-3.27287 -5.77914,-11.14357 -0.81014,-5.57019 -1.69875,-1.02673 -1.82856,13.67303 -0.17173,19.447 -0.64854,23.25381 -5.01406,20.55863 -1.44939,-0.89482 -2.15437,-5.10108 -2.72476,-16.25706 -0.4685,-9.16336 -0.73507,-20.16108 -1.68112,-15.38052 -2.05694,10.39411 -0.65107,22.55318 -4.05654,22.06723 -2.48553,-0.35468 -2.87416,-1.41244 -3.22416,-8.77537 -0.61644,-12.96836 -3.55409,-8.57349 -3.55409,5.58666 0,14.21992 0.008,16.78542 -3.49853,16.78542 -3.09617,0 -3.76575,-2.71359 -4.27698,-17.33334 -0.34127,-9.75924 -1.18531,-10.1859 -1.41901,3.23007 -0.34062,19.5543 -1.4328,26.32389 -5.92009,21.8366 z m -69.91578,-61.6118 c -0.36443,-3.23315 -0.35668,-14.3849 0.0172,-24.78166 0.54452,-15.14134 1.3679,-18.48849 2.5936,-17.28502 2.48324,2.43819 3.40686,1.0657 3.40686,22.80179 0,11.5332 0.12195,21.78594 -0.32318,22.94592 -0.44512,1.15998 -0.35513,2.19744 -2.01464,2.19744 -2.57771,0 -3.1138,-0.85639 -3.67986,-5.87847 z m 134.21248,1.77268 c -0.94538,0.78459 -2.53476,1.11058 -3.72771,0.65281 -1.87338,-0.71889 -2.169,-3.63524 -2.169,-21.39819 0,-17.12772 0.52469,-19.27338 2.20448,-19.91798 1.10934,-0.42569 1.2683,-0.67405 2.24386,0.1356 0.50382,0.41813 1.29847,19.48242 1.68969,19.44205 m 3.00071,-22.2472 c 0.97646,-2.14308 1.93594,-1.46183 3.38979,-1.18249 2.08861,0.4013 2.50485,1.07191 2.83163,23.57591 l -1.41849,23.49158 -1.15573,1.5537 c -1.27119,1.70892 -3.01286,-0.95582 -3.57814,-2.73687 -0.39177,-1.23437 -0.007,-21.42361 -0.5353,-21.48193 m -127.04015,0.644 1.03057,-19.27991 2.62741,-0.47862 1.69697,0.6112 1.67938,18.72213 -0.70711,20.09214 -2.99388,0.99973 -3.70099,0.42521 z m 137.97945,10.74215 c -0.51982,-0.51982 -0.94513,-5.64513 -0.94513,-11.38957 l 0.253,-8.65445 3.73463,-1.28177 1.85526,1.19324 1.1485,9.23224 c 0.52969,4.25797 -0.6576,11.0387 -3.10879,11.38958 -1.49684,0.21426 -2.41764,0.0306 -2.93747,-0.48927 z M 198.41355,245.75744 c 0.38373,-10.89969 0.0672,-9.28027 3.70038,-9.69832 l 1.89889,0.63876 1.19324,8.46089 -1.06066,10.71479 -2.06518,0.88388 -3.08165,-0.66291 z"
         id="path859"
         sodipodi:nodetypes="ssssssssssssssscsscssscsssssssssssssssssssssssscsssssssssccsscsssssssssssssscsssssscssssccscssccssccccccsssccssssscccccssc" />
      <path
         style="fill:#008000;fill-opacity:1;stroke-width:1.33333"
         d="m 277.7318,323.99094 c -0.75913,-1.41846 -0.97399,-7.63096 -0.97399,-16.47917 0,-9.83621 -0.51812,-16.08765 -1.33334,-16.08765 -0.79451,0 -1.86458,5.04351 -1.86458,12.52636 0,13.71331 -0.10932,16.21322 -2.97774,16.21322 -3.05606,0 -4.47748,-5.38752 -4.69433,-19.15972 -0.18182,-11.5479 -0.56935,-12.25486 -1.28649,-5.1007 -0.87063,8.68538 -1.69393,11.52084 -4.44623,11.52084 -2.60519,0 -3.39729,-3.11584 -3.39729,-13.3637 0,-15.34048 -2.91123,-13.22364 -3.32938,2.63072 -0.32803,12.43702 -0.31703,14.64674 -2.3334,15.03294 -1.51871,0.29088 -2.79486,0.003 -3.66667,-2.28975 -1.41363,-3.71812 -1.90052,-36.67688 -0.54182,-36.67688 0.43747,0 2.4395,2.60494 5.70938,5.4832 8.01077,7.05136 17.25361,9.54772 25.08129,7.7935 8.76872,-1.96512 17.77705,-6.9576 24.34902,-13.49442 16.99495,-16.90406 17.26132,-43.07887 0.61683,-60.6132 -6.59848,-6.95125 -12.87769,-9.00716 -25.06775,-8.20758 -16.08993,1.0554 -29.16525,10.1033 -35.94779,24.87529 -4.0482,8.81674 -4.66239,25.07244 -0.49674,34.37449 2.51825,5.62335 3.67741,8.50686 3.35161,17.86026 -0.32901,9.44546 -0.88682,10.49061 -2.8457,10.8649 -3.56478,0.68114 -4.19362,-4.09796 -4.82474,-20.02324 l -0.56459,-14.24654 -1.11977,12.6217 c -0.97337,10.97157 -0.72024,12.48167 -2.89878,12.89727 -1.37879,0.26304 -2.99751,-0.0656 -3.62415,-1.05444 -1.48711,-2.34661 -1.48711,-67.91577 0,-70.26238 0.62664,-0.98882 2.26746,-1.5829 3.64625,-1.32016 2.14512,0.40875 1.31545,2.12483 2.55138,11.75366 l 1.45871,11.36436 0.38131,-12.66667 c 0.46977,-15.60515 1.40354,-19.33333 4.84228,-19.33333 2.18459,0 0.7143,2.39828 1.76908,8.48238 1.32567,7.64654 4.09313,6.37057 3.41047,-10.7056 -0.71041,-17.77039 0.77668,-21.12647 4.75177,-17.82744 1.58726,1.31731 2.10071,3.8706 2.10071,13.58175 0,8.04854 1.05494,12.32937 1.90785,11.80224 0.73334,-0.45323 1.33334,-4.91517 1.33334,-9.91543 0,-6.72651 0.42519,-4.69294 2.0117,-6.00962 3.17853,-2.63795 5.8017,1.6922 6.0829,10.04125 0.12495,3.70984 0.70754,-4.58846 1.13258,-12.49901 0.5676,-10.56348 0.18719,-12.97991 1.62325,-13.86682 4.00618,-2.47424 5.24546,-0.72437 5.24546,12.28031 0,7.44672 1.77667,12.63599 2.57077,12.63599 0.81362,0 1.33334,-6.13728 1.33334,-15.74516 0,-11.57364 -0.2452,-14.70731 1.15894,-16.60977 3.73652,-5.06259 4.83718,-2.13321 5.65339,16.04087 0.67448,15.01805 2.06938,15.67768 2.28163,5.47732 0.18165,-8.72932 0.75647,-11.93257 2.38365,-13.28301 3.88716,-3.22605 4.61828,1.91887 4.61828,15.12964 0,6.94122 1.78279,11.65677 2.57077,11.65677 0.73334,0 1.33334,-3.22653 1.33334,-7.17007 0,-7.54583 0.84719,-9.87589 4.13592,-7.84335 1.16346,0.71906 -1.33759,4.72165 0.99198,10.3934 l 2.79789,10.03799 1.83072,-13.1281 c 1.74869,-12.53988 0.91443,-17.6232 4.14774,-17.6232 2.88179,0 1.82758,3.19568 2.00443,21.15324 0.13328,13.53394 3.06577,23.14038 3.88657,17.51166 1.21439,-8.32788 -1.11855,-13.4315 1.60117,-11.17434 1.33031,1.10406 3.94933,4.32673 3.96262,14.66664 0.0247,19.26967 3.19361,20.74915 4.06268,4.23679 0.62221,-11.82201 0.77518,-13.75532 3.53115,-14.14722 2.16299,-0.30757 2.40365,0.40575 2.95704,2.66667 0.4155,1.69761 1.10244,18.43243 0.7782,37.13075 l -0.58395,33.67456 -2.77083,0.28125 c -3.27208,0.33213 -3.34223,-0.17778 -4,-13.33333 -0.85827,-17.16537 -2.97702,-12.07185 -3.00201,7.66432 -0.015,11.81065 -0.50149,13.56805 -2.21832,14.22686 -3.21654,1.2343 -4.50171,-4.44536 -5.38958,-12.18693 -0.59696,-5.20513 -1.78466,1.47885 -1.74364,15.6799 0.0533,18.44644 -0.44436,19.96791 -3.13932,20.35247 -3.67999,0.52512 -4.40768,-2.3215 -4.70452,-18.40329 l -0.23379,-12.66667 -2.68476,1.38403 c -8.91939,4.59808 -0.58458,21.52785 -4.12777,20.1682 -1.58077,-0.6066 -2.08962,-2.77935 -2.08962,-8.9224 0,-5.07417 -1.09682,-7.96608 -1.92996,-7.45117 -0.73521,0.45439 -1.27553,5.33155 -1.33333,13.30297 -0.0985,13.58721 -0.21307,16.34348 -3.7195,16.34348 -3.09617,0 -3.56688,-2.20536 -4.07811,-16.82511 -0.34127,-9.75924 -1.15276,-9.23193 -1.38646,4.18404 -0.34497,19.80378 -2.61665,25.11918 -6.57865,17.71612 z m -9.8515,-44.03481 c -2.41123,-3.68001 -1.65199,-6.39967 2.52152,-9.03225 1.50283,-0.94796 2.75598,-0.82765 4.24422,0.40748 2.51548,2.08766 2.80226,7.59192 0.4451,8.54305 -0.91667,0.36988 -0.43667,0.71988 1.06667,0.77778 3.71664,0.14313 5.93333,-2.36709 5.93333,-6.71902 0,-6.00922 -1.31668,-7.84239 -5.63285,-7.84239 -6.10637,0 -14.36715,-8.76419 -14.36715,-15.24268 0,-6.18322 2.61878,-11.26834 8.43128,-16.37179 4.18,-3.67009 4.61553,-4.76449 5.13354,-12.89972 0.47472,-7.45525 1.14563,-9.46899 4.15862,-12.48197 3.23491,-3.23491 3.79701,-3.38815 5.64595,-1.5392 5.16563,5.16562 3.98207,18.91252 -2.14397,24.90185 -3.22145,3.14957 -3.85531,4.64911 -3.15115,7.45474 0.5394,2.14913 1.80295,3.5121 3.2559,3.5121 8.50912,0 11.94547,13.41331 4.97286,19.41089 -3.05345,2.62647 -3.63636,4.19154 -3.63636,9.76326 0,8.16616 -2.30887,10.82586 -9.39784,10.82586 -4.13712,0 -5.67437,-0.71276 -7.47967,-3.46799 z m 11.9975,-22.86535 c -1.0141,-7.74747 -1.48865,-8.36819 -3.88849,-5.08623 -1.63063,2.23003 -1.61185,2.99128 0.13976,5.66457 1.79185,2.73471 1.79454,3.08833 0.0236,3.08833 -3.04753,0 -6.43095,-6.02646 -5.39047,-9.60138 0.49068,-1.68591 2.47812,-4.39761 4.41652,-6.026 2.71464,-2.28048 3.16169,-3.3234 1.94578,-4.53931 -1.2159,-1.21591 -2.49586,-0.59666 -5.57098,2.69527 -5.07751,5.43549 -6.0961,8.7224 -4.15514,13.4083 1.65995,4.00748 5.52973,6.49379 10.33397,6.63954 2.78395,0.0845 2.92139,-0.31546 2.1455,-6.24309 z m 7.54667,-1 c 0,-3.04557 -3.42248,-7.02196 -4.83126,-5.61318 -0.42175,0.42175 -0.35011,3.2333 0.1592,6.24788 0.76175,4.50877 1.25827,5.20531 2.79904,3.92659 1.03016,-0.85496 1.87302,-2.90754 1.87302,-4.56129 z m -2.37224,-37.85302 c 0.20474,-1.7525 -0.34256,-3.44077 -1.21621,-3.75171 -1.92632,-0.6856 -5.74488,6.2991 -5.74488,10.50822 v 3.03591 l 3.29443,-3.30303 c 1.81193,-1.81667 3.46193,-4.73689 3.66666,-6.48939 z m -76.6102,47.30789 c -0.36443,-3.23315 -0.35668,-14.3849 0.0172,-24.78166 0.54452,-15.14135 0.96641,-19.5851 2.68199,-19.67151 2.48324,-0.12507 3.62783,3.09864 3.62783,24.83473 0,11.5332 -0.0106,21.21141 -0.45576,22.37139 -0.44513,1.15998 -0.53191,3.12552 -2.19142,3.12552 -2.57771,0 -3.1138,-0.85639 -3.67986,-5.87847 z m 137.45451,-41.56023 c 0.97645,-2.14309 2.40939,-3.33113 3.82069,-2.88396 1.58037,0.50074 2.12083,2.79682 2.44761,25.30082 l -2.07304,22.72789 -0.99,0.48199 c -0.8712,0.42415 -3.13377,0.85788 -3.67701,-0.8537 -0.36156,-1.13918 0.74401,-23.41454 0.14181,-23.56797 m -3.31165,-10.60723 c -0.49752,-0.41287 0.63823,31.32335 -0.0747,31.68942 -5.07279,2.60479 -5.42246,1.71046 -5.42246,-19.66819 0,-17.15588 0.33702,-20.72672 2.01698,-21.37139 1.10934,-0.42569 1.71959,-0.55973 2.09756,0.2001 m -122.48219,22.41612 1.56284,-20.09589 2.13815,-0.99598 2.13815,0.39839 1.19518,20.26827 -1.79277,19.86988 -1.90822,1.222 -2.30661,-1.76595 z m 137.97945,10.74215 c -0.51982,-0.51982 -0.94513,-5.64513 -0.94513,-11.38958 l 0.33633,-10.06507 3.71759,-0.37937 2.42978,0.74025 0.90543,10.20451 c 0.0834,0.93992 -0.32614,11.09394 -2.77733,11.44482 -1.49684,0.21426 -3.14684,-0.0357 -3.66667,-0.55556 z m -157.71914,-2.29964 c -0.37968,-0.98943 -0.51085,-5.93943 -0.29149,-11 0.38229,-8.81921 0.53717,-9.20105 3.73217,-9.20105 3.2549,0 3.21832,0.25883 3.59646,11 l -0.81444,9.71837 -2.10328,1.28163 c -1.61055,0.98139 -3.73974,-0.80953 -4.11942,-1.79895 z"
         id="path857"
         sodipodi:nodetypes="ssssssssssssssssssssssscsssssscsssssssssssssssssssssssscssssscsssscsscssssscsssssssssssssssssssssssssssssssssssssssssssssssscsssssssssscscsscccssscscccccccsscccssssssscsss" />
      <path
         style="fill:#8c8c8c;fill-opacity:1;stroke-width:1.33333"
         d="m 277.98733,326.12878 c -0.74452,-1.39114 -1.35367,-9.7688 -1.35367,-18.61701 0,-9.83621 -0.51811,-16.08765 -1.33333,-16.08765 -0.79633,0 -1.34156,5.23583 -1.35375,13 -0.0212,13.51841 -1.02799,17.23962 -4.3221,15.97556 -2.55249,-0.9795 -3.61685,-6.74738 -3.83992,-20.8089 l -0.18243,-11.5 -0.92638,8.09739 c -1.02067,8.92148 -1.97744,11.23595 -4.64479,11.23595 -2.6052,0 -3.3973,-3.11584 -3.3973,-13.3637 0,-15.35008 -2.53637,-12.21948 -2.95438,3.64654 -0.3522,13.36861 -0.56716,14.38382 -3.04562,14.38382 -2.52879,0 -2.68571,-1.01169 -3.03508,-19.56771 l -0.36841,-19.56771 4.36841,4.10908 c 10.8734,10.22791 28.38781,13.68825 43.32873,8.56051 9.23978,-3.17109 19.2683,-12.3478 23.96638,-21.93068 3.1608,-6.44722 3.71926,-9.22558 3.6724,-18.27015 -0.0457,-8.82132 -0.68606,-11.97257 -3.70143,-18.21516 -4.0305,-8.34415 -11.10242,-15.45543 -19.83758,-19.94799 -7.9009,-4.06349 -23.61389,-4.97438 -32.85591,-1.90467 -8.5943,2.85457 -19.21762,12.29065 -23.93232,21.25769 -3.11146,5.91779 -3.58224,8.3825 -3.59291,18.81013 -0.01,9.83277 0.53965,13.12033 3.04374,18.20336 2.58332,5.24382 2.9958,7.92496 2.66667,17.33333 -0.35372,10.1113 -0.63342,11.12997 -3.05602,11.12997 -2.47301,0 -2.72616,-1.16196 -3.48588,-16 -1.04857,-20.47956 -1.51682,-21.63287 -2.43601,-6 -0.68269,11.61074 -0.98038,12.39093 -3.57097,12.7606 -4.12879,0.58917 -4.46847,-1.76786 -4.48893,-34.92726 -0.0212,-34.26078 0.44393,-38.14736 4.49561,-37.56909 2.54734,0.36357 2.89206,1.49644 3.57111,11.73575 0.41338,6.23334 0.94231,11.03334 1.17541,10.66667 0.2331,-0.36667 0.79488,-7.56667 1.24841,-16 0.762,-14.16958 1.02697,-15.33333 3.49125,-15.33333 2.27864,0 2.72548,1.02363 3.07089,7.03487 0.77498,13.48747 2.92911,5.41925 2.92911,-10.97091 0,-12.74182 0.41381,-16.60412 1.83753,-17.15045 3.65508,-1.40259 4.82914,2.23281 4.82914,14.95315 0,14.73238 2.3061,15.36158 2.93209,0.8 0.36228,-8.42703 0.68344,-9.37351 3.30748,-9.74711 2.54842,-0.36284 3.01029,0.37588 3.7514,6 1.41668,10.75089 1.69294,10.81205 1.86903,0.41378 0.26768,-15.80709 1.30789,-20.21343 4.65889,-19.73508 2.61292,0.37298 2.84176,1.33258 3.19605,13.40175 0.5467,18.62366 2.95172,16.38694 2.95172,-2.74516 0,-16.30919 1.39027,-21.4311 5.16986,-19.0463 1.31489,0.82965 2.10876,6.02984 2.79502,18.30846 0.81126,14.51504 0.99,15.49893 1.16348,6.4045 0.13823,-7.24617 0.85624,-11.58795 2.20497,-13.33333 1.97979,-2.56201 2.02022,-2.56201 4,0 1.43054,1.85124 2,5.93238 2,14.33333 0,13.02113 2.30024,16.21923 2.93347,4.0785 0.35423,-6.7916 0.74229,-7.7153 3.39987,-8.09274 2.88442,-0.40965 3,-0.0372 3,9.66667 0,5.8396 0.56187,10.09273 1.33333,10.09273 0.76837,0 1.33334,-4.16666 1.33334,-9.83333 0,-12.22214 1.13744,-18.17519 3.65748,-19.14222 3.44313,-1.32125 4.30127,2.62919 4.3221,19.89686 0.0211,17.51232 2.2428,25.11691 2.95579,10.11744 0.3494,-7.35054 0.72334,-8.37208 3.06463,-8.37208 2.49337,0 2.72141,1.16972 3.50915,18 0.46337,9.9 1.02957,18.3 1.25822,18.66667 0.22866,0.36666 0.74954,-5.33334 1.15752,-12.66667 0.6945,-12.48365 0.92995,-13.36009 3.69465,-13.75323 2.16299,-0.30757 3.15495,0.40575 3.70834,2.66667 0.4155,1.69761 0.5867,18.38656 0.38045,37.08656 0,0 1.15219,28.0612 -0.53125,33.65625 -0.32013,1.06399 -3.17708,0.34375 -3.17708,0.34375 -3.30159,0 -3.33969,-0.13333 -4,-14 -0.83943,-17.62795 -2.66667,-11.67296 -2.66667,8.69068 0,9.73677 -0.48134,13.86769 -1.66667,14.30359 -3.83518,1.41037 -5,-0.61766 -5,-8.70538 0,-5.27053 -0.45765,-7.6979 -1.29371,-6.86184 -0.71154,0.71154 -1.46154,9.68154 -1.66667,19.93333 -0.35661,17.82303 -0.49647,18.65725 -3.19246,19.04203 -3.55819,0.50786 -4.51382,-3.62106 -4.51382,-19.50241 0,-13.7794 -2.33595,-13.43417 -2.9321,0.43333 -0.35727,8.3107 -0.69342,9.33334 -3.0679,9.33334 -2.34129,0 -2.71523,-1.02155 -3.06463,-8.37208 -0.59463,-12.50933 -2.93236,-8.72275 -2.95358,4.7841 -0.0222,14.1349 -0.83449,17.58798 -4.1373,17.58798 -1.38114,0 -2.58468,-0.15 -2.67454,-0.33334 -0.0899,-0.18333 -0.58924,-6.63333 -1.10972,-14.33333 l -0.94633,-14 -0.23829,13.33333 c -0.29262,16.37266 -1.30886,22.95846 -3.6833,23.86962 -1.00007,0.38376 -2.42746,-0.44047 -3.17198,-1.83162 z m -9.94473,-45.668 c -2.67468,-3.81865 -2.62059,-4.49168 0.62162,-7.73389 2.14229,-2.14229 3.23958,-2.40696 5.33333,-1.28642 2.95656,1.5823 3.4554,5.29769 1.03611,7.71698 -1.24444,1.24444 -0.98443,1.6 1.17007,1.6 4.04767,0 5.99223,-3.12769 5.51597,-8.87205 -0.39602,-4.77653 -0.73022,-5.11922 -6.00226,-6.15495 -3.88389,-0.76301 -6.82568,-2.51226 -9.66667,-5.74796 -6.77745,-7.71909 -5.08019,-17.53064 4.40047,-25.43838 4.19576,-3.49965 4.58181,-4.47149 5.09324,-12.82178 0.46706,-7.62587 1.11372,-9.59548 4.14595,-12.62771 3.42657,-3.42657 3.70081,-3.48436 5.93457,-1.25059 1.74652,1.74652 2.34199,4.51464 2.34199,10.88698 0,7.86394 -0.35127,8.90742 -4.4073,13.09218 -5.53594,5.71164 -4.98002,10.4366 1.4528,12.34801 5.72088,1.69986 8.77669,9.13321 6.08164,14.79378 -0.99309,2.08586 -3.05526,4.34268 -4.58259,5.01516 -2.40546,1.05911 -2.69366,2.08972 -2.15423,7.70363 0.79716,8.29623 -1.89822,11.74035 -9.18803,11.74035 -3.70815,0 -5.60291,-0.78787 -7.12668,-2.96334 z m 11.83525,-23.37 c -1.10168,-7.59058 -1.27902,-7.85089 -3.87863,-5.69341 -2.63742,2.18886 -2.56498,3.89133 0.30111,7.07672 2.23529,2.48433 2.22172,2.57209 -0.32318,2.08868 -1.46109,-0.27753 -3.43833,-2.1358 -4.39388,-4.12949 -1.97712,-4.12511 -0.60241,-8.11277 4.08123,-11.83855 1.80284,-1.43414 2.41231,-2.96125 1.80915,-4.53306 -0.83421,-2.17393 -1.19341,-2.1052 -4.3348,0.82938 -4.16141,3.88745 -7.17185,9.4258 -7.17185,13.19413 0,4.233 5.84338,9.33894 10.68775,9.33894 h 4.14231 z m 6.92675,1.4603 c 0.91744,-3.65539 -0.51875,-7.2429 -3.2662,-8.15872 -1.69689,-0.56563 -2.059,3.74309 -0.73102,8.69842 1.08145,4.03542 2.91093,3.78841 3.99722,-0.5397 z m -4.38454,-34.32142 c 3.3739,-5.14923 4.22318,-10.13888 1.72572,-10.13888 -2.39547,0 -6.17879,6.49073 -6.17879,10.60046 0,3.65025 1.88706,3.45465 4.45307,-0.46158 z m -73.48249,22.19446 c -0.29323,-23.99093 0.47047,-25 3.02943,-25 2.55895,0 2.68131,1.0098 3.02942,25 l -0.87469,24.33709 -2.15473,0.66291 -2.72927,-0.44194 z m 137.33333,0 c -0.62657,-23.98454 0.47047,-25 3.02943,-25 2.55896,0 2.68132,1.0098 3.02943,25 l -1.55108,23.72748 -1.62198,0.90792 -2.25472,-0.4782 z m -128.00489,1.4252 0.36765,-21.09187 h 3.33334 l 2.26228,0.39839 1.07105,20.26828 -1.01647,19.51761 -2.68452,1.57426 -2.64033,-0.54706 z m 118.66713,-1.4252 c -0.19726,-19.9908 0.4956,-21 3.03386,-21 2.461,0 2.73462,1.18259 3.54777,15.33333 0.48461,8.43333 0.56649,17.88333 0.18195,21 -0.60546,4.90707 -1.13024,5.66667 -3.91498,5.66667 l -2.64661,-0.53034 z m 19.31232,12.16735 c -0.51982,-0.51982 -0.94513,-5.64513 -0.94513,-11.38958 l 0.42014,-9.98778 3.63378,-0.45666 c 0,0 2.11807,-0.28492 2.41874,0.28726 1.21649,2.31502 1.24793,10.71274 1.24793,10.71274 0.20103,9.91142 -0.6576,11.0387 -3.10879,11.38958 -1.49684,0.21426 -3.14684,-0.0357 -3.66667,-0.55556 z m -157.71915,-2.29964 c -0.37967,-0.98943 -0.51084,-5.93942 -0.29148,-11 0.38228,-8.8192 0.53717,-9.20105 3.73217,-9.20105 3.2549,0 3.34244,0.25883 3.72059,11 l -0.67341,9.93934 -2.36844,1.06066 c -1.72129,0.77085 -3.73975,-0.80953 -4.11943,-1.79895 z"
         id="path855"
         sodipodi:nodetypes="sssssscsssssscsssssssscssssssssssssssssssssssssssssssssssscssssssssssssssssssssssssscssssssssssssssssssssssssssssssssscsssssssssssscccsssscccscccccccccssssscsssccsssssssscss" />
      <path
         style="fill:#767676;fill-opacity:1;stroke-width:1.33333"
         d="m 277.32717,325.31505 c -0.44513,-1.15997 -0.80932,-9.25997 -0.80932,-18 0,-9.70508 -0.51903,-15.89094 -1.33333,-15.89094 -0.7989,0 -1.33334,5.27891 -1.33334,13.17008 0,10.24096 -0.45738,13.54965 -2.05651,14.87681 -3.73263,3.09781 -5.13361,-0.72517 -6.00794,-16.39436 -0.45991,-8.24222 -0.93356,-12.17493 -1.05254,-8.73933 -0.2668,7.7036 -2.20315,13.0868 -4.70735,13.0868 -2.71935,0 -3.50899,-3.00727 -3.50899,-13.3637 0,-15.35008 -2.53637,-12.21948 -2.95438,3.64654 -0.35221,13.36861 -0.56717,14.38382 -3.04562,14.38382 -2.52561,0 -2.68628,-1.01249 -3.03747,-19.14171 l -4.08956,-23.45422 8.98356,8.4823 c 8.60463,8.12451 16.97011,10.08273 28.14347,10.00622 12.61179,-0.0864 21.23554,-3.6544 29.72704,-12.29942 8.97589,-9.13816 12.22855,-17.17086 12.25302,-30.25983 0.0168,-9.00846 -0.56052,-11.84868 -3.71388,-18.27015 -9.96522,-20.29298 -33.0799,-29.256 -54.51548,-21.13908 -9.50827,3.60045 -21.0368,15.42652 -24.26001,24.88612 -3.23509,9.49445 -2.75383,22.25482 1.20145,31.85644 3.737,9.07173 4.79897,27.83302 1.64119,28.99427 -4.25839,1.56601 -4.99995,-0.51841 -5.0182,-14.10538 -0.0252,-18.77447 -1.79262,-23.81654 -2.64846,-7.55556 -0.61264,11.64017 -0.8957,12.69935 -3.49286,13.06996 -2.00707,0.28641 -3.06452,-0.48649 -3.64846,-2.66666 -1.37668,-5.1399 -0.96184,-63.29171 0.47854,-67.08017 0.87108,-2.29114 2.14922,-3.36255 3.66666,-3.07363 1.92536,0.36658 2.45983,2.40722 3.08105,11.76368 0.41337,6.22609 0.94231,11.02016 1.17541,10.6535 0.2331,-0.36667 0.79488,-7.56667 1.2484,-16 0.76201,-14.16959 1.02698,-15.33334 3.49126,-15.33334 2.27864,0 2.72548,1.02363 3.07089,7.03488 0.75618,13.16029 2.92911,5.60822 2.92911,-10.18023 0,-16.12455 1.20734,-20.3923 4.9016,-17.32633 1.23634,1.02607 1.76506,5.23382 1.76506,14.04697 0,8.04853 0.48043,12.28517 1.33334,11.75805 0.73333,-0.45323 1.33333,-4.33957 1.33333,-8.63631 0,-9.45253 0.86273,-12.03036 4.02624,-12.03036 1.92792,0 2.6626,1.6603 3.68745,8.33333 l 1.27985,8.33334 0.16989,-10.16667 c 0.21353,-12.77749 1.34246,-18.522 3.82739,-19.47555 3.22845,-1.23888 4.30066,2.3935 4.3221,14.64222 0.012,6.87527 0.568,11.66666 1.35375,11.66666 0.81361,0 1.33333,-6.13727 1.33333,-15.74516 0,-16.30919 1.39027,-21.4311 5.16985,-19.04629 1.31489,0.82965 2.10877,6.02983 2.79503,18.30845 0.81126,14.51504 0.99,15.49894 1.16348,6.40451 0.13823,-7.24617 0.85624,-11.58796 2.20497,-13.33333 1.97978,-2.56201 2.02022,-2.56201 4,0 1.43054,1.85124 2,5.93238 2,14.33333 0,13.02113 2.30024,16.21922 2.93346,4.07849 0.34656,-6.64448 0.75542,-7.66666 3.06654,-7.66666 2.37448,0 2.71063,1.02263 3.0679,9.33333 0.57964,13.4834 2.9321,14.36594 2.9321,1.1 0,-13.12139 1.08726,-19.08927 3.65748,-20.07555 3.4659,-1.32999 4.30132,2.65995 4.3221,20.64222 0.0119,10.28443 0.55098,17.66666 1.29013,17.66666 0.69834,0 1.44834,-3.75 1.66666,-8.33333 0.34832,-7.31213 0.72375,-8.33333 3.06363,-8.33333 2.49792,0 2.70885,1.11111 3.33333,17.55901 0.7625,20.08301 2.65648,25.4844 2.68708,7.66321 0.0228,-13.29904 1.20309,-16.74096 4.94163,-14.41111 2.15258,1.34148 2.4059,4.53884 2.74652,34.66666 0.20637,18.25389 0.0352,34.57784 -0.38047,36.27545 -0.55353,2.26087 -1.5456,2.97423 -3.70855,2.66666 -2.784,-0.39587 -2.991,-1.22057 -3.61954,-14.41989 -0.83943,-17.62794 -2.66667,-11.67296 -2.66667,8.69068 0,9.73677 -0.48134,13.86769 -1.66667,14.30359 -3.81302,1.40222 -5,-0.61976 -5,-8.5174 0,-4.9722 -0.50126,-7.65778 -1.33333,-7.14354 -0.77704,0.48024 -1.33333,7.9775 -1.33333,17.96964 0,18.25318 -0.5109,21.3637 -3.50899,21.3637 -3.04939,0 -4.49101,-6.01988 -4.49101,-18.75347 0,-14.6566 -2.40252,-15.94593 -2.94392,-1.57987 -0.35102,9.31464 -0.6523,10.33334 -3.05608,10.33334 -2.33988,0 -2.71531,-1.02122 -3.06362,-8.33334 -0.63811,-13.39593 -2.93638,-9.68195 -2.93638,4.74516 0,9.25896 -0.55788,13.83436 -1.91024,15.66667 -3.42797,4.64455 -5.35134,0.35168 -6.18547,-13.80565 l -0.76238,-12.93951 -0.2523,13.33333 c -0.34182,18.06478 -1.30252,23.33334 -4.25475,23.33334 -1.29225,0 -2.71375,-0.94907 -3.15887,-2.10906 z m -8.0022,-43.62336 c -1.57622,-1.15257 -2.21937,-3.04924 -1.9215,-5.66667 0.38447,-3.37854 1.01013,-3.93425 4.42945,-3.93425 4.7676,0 6.32194,4.1721 2.57508,6.91188 -2.22022,1.62345 -2.15123,1.75479 0.92168,1.75479 4.76912,0 6.5215,-2.40046 6.5215,-8.93333 0,-5.41542 -0.21086,-5.73334 -3.80282,-5.73334 -4.64567,0 -12.23115,-4.90643 -14.49143,-9.37335 -3.70024,-7.31264 -0.44557,-16.87805 7.72159,-22.69358 3.45813,-2.4624 3.90623,-3.57354 3.90807,-9.69052 0.002,-8.40636 3.4954,-16.07615 7.58636,-16.65836 2.38365,-0.33923 3.21351,0.55796 4.50585,4.87139 2.11695,7.06574 0.6429,13.94537 -4.16005,19.41562 -5.02765,5.72618 -5.12125,9.74351 -0.27001,11.58795 6.10644,2.32166 8.33578,5.196 8.33578,10.74751 0,4.90772 -3.48761,10.46001 -6.57033,10.46001 -0.69821,0 -0.91598,3.11037 -0.49999,7.14098 0.66216,6.41567 0.4191,7.36365 -2.39301,9.33333 -3.75959,2.63332 -9.1504,2.83334 -12.39622,0.45994 z m 10.55288,-24.60091 c -1.12175,-7.53559 -1.36206,-7.8781 -3.99445,-5.69341 -2.60985,2.16599 -2.56633,3.89325 0.17443,6.92175 2.68907,2.97139 0.16228,3.28344 -2.77808,0.34309 -3.15927,-3.15927 -2.58614,-8.97875 1.2381,-12.57143 3.22295,-3.0278 4.56243,-8 2.15515,-8 -0.648,0 -3.348,2.40173 -6,5.33717 -3.31424,3.66846 -4.82182,6.60556 -4.82182,9.39394 0,5.46149 5.21601,10.60222 10.75745,10.60222 h 4.212 z m 7.30667,-0.22993 c 0,-3.45954 -2.08638,-6.77007 -4.26667,-6.77007 -1.25292,0 -1.38027,6.02696 -0.21894,10.36143 0.64144,2.39405 1.196,2.70885 2.64846,1.50341 1.01043,-0.83858 1.83715,-3.13123 1.83715,-5.09477 z m -3.24542,-34.94008 c 2.44356,-4.72534 2.43868,-7.82999 -0.0123,-7.82999 -2.93998,0 -6.07561,5.39839 -6.07561,10.45993 0,3.96322 0.26255,4.31536 2.08792,2.80044 1.14835,-0.95305 2.94835,-3.39672 4,-5.43038 z m -74.53236,48.61445 c -0.48889,-0.48889 -0.88889,-11.52469 -0.88889,-24.52401 0,-17.69233 0.41907,-23.78924 1.66667,-24.24804 4.62383,-1.70039 5,0.18836 5,25.10538 0,22.92256 -0.16256,24.55556 -2.44444,24.55556 -1.34445,0 -2.84445,-0.4 -3.33334,-0.88889 z m 136.44444,-23.54239 c -0.76643,-19.33627 0.38234,-24.76347 1.78757,-25.30271 4.46857,-1.71475 4.9478,0.91986 4.57748,25.16562 -0.36115,23.64582 -0.39717,23.90626 -3.36505,24.32777 l -2.06502,-0.6022 z m -127.37756,20.13015 c -0.38443,-1.00183 -0.53175,-10.49391 -0.32737,-21.09352 0.36151,-18.74846 0.45182,-19.28342 3.32447,-19.69191 4.06862,-0.57855 4.55651,2.24951 4.09778,23.75323 -0.37393,17.52898 -0.46264,18.01116 -3.38994,18.42684 -1.65328,0.23477 -3.3205,-0.39282 -3.70494,-1.39464 z m 118.3437,-20.69887 c -0.31035,-19.98936 0.4956,-21 3.03386,-21 2.46394,0 2.72978,1.16568 3.49702,15.33333 0.45671,8.43334 0.52515,17.88334 0.15211,21 -0.58607,4.89642 -1.11132,5.66667 -3.86423,5.66667 l -2.50095,-0.53033 z m 20.03386,12.11696 c -1.13799,-0.45919 -1.66667,-4.0489 -1.66667,-11.31663 l 0.53596,-10.00252 3.13071,-0.2197 c 3.60546,-0.25301 3.67488,0.62681 4.06277,10.30441 0.43864,10.94375 -0.85276,13.33673 -6.06277,11.23444 z M 198.4105,256.29182 c -0.37967,-0.98942 -0.51084,-5.93942 -0.29148,-11 0.38228,-8.8192 0.53717,-9.20104 3.73217,-9.20104 3.2549,0 3.34244,0.25882 3.72059,11 0,0 0.13992,5.76379 -0.0989,9.58579 -0.0658,1.05351 -2.94296,1.41421 -2.94296,1.41421 -1.88436,0.079 -3.73975,-0.80953 -4.11943,-1.79896 z"
         id="path853"
         sodipodi:nodetypes="sssssssssssscscsccsssssssssssssssssssssscssssssssssssssssssssscsscssssssssssssssscsssssssssssscsssssssssssssssssscssssssssssssssssssssscsssssssssssscssscssssssscsss" />
      <path
         style="fill:#606060;fill-opacity:1;stroke-width:1.33333"
         d="m 277.01137,324.91179 c -0.44513,-1.15997 -0.80932,-9.25997 -0.80932,-18 0,-9.70508 -0.51903,-15.89094 -1.33333,-15.89094 -0.7934,0 -1.33334,5.02616 -1.33334,12.41182 0,8.68028 -0.5743,13.18995 -1.91023,15 -3.43667,4.65632 -5.09341,0.38724 -6.08422,-15.67774 -0.51111,-8.28708 -1.02145,-12.25648 -1.13408,-8.82088 -0.25223,7.69316 -2.18757,13.0868 -4.69581,13.0868 -2.71935,0 -3.50899,-3.00727 -3.50899,-13.3637 0,-15.35008 -2.53637,-12.21948 -2.95438,3.64654 -0.3522,13.36861 -0.56716,14.38382 -3.04562,14.38382 -2.52474,0 -2.68636,-1.01224 -3.03672,-19.01922 l -3.71381,-22.55048 9.29573,8.0745 c 8.29357,7.204 17.18056,9.50353 28.12147,9.44687 16.05186,-0.0831 29.02749,-7.92324 36.78187,-22.22427 4.22519,-7.79233 4.55058,-9.25429 4.53919,-20.39406 -0.0107,-10.42763 -0.48145,-12.89234 -3.59292,-18.81013 -16.44587,-31.27895 -60.69375,-31.41922 -77.33949,-0.24519 -2.59971,4.86874 -3.05532,7.71022 -3.05532,19.05532 0,11.275 0.46313,14.19992 3,18.94688 2.38724,4.46696 3,7.77397 3,16.19068 0,10.54077 -0.93512,12.63949 -5,11.22158 -1.18027,-0.4117 -1.66666,-4.39143 -1.66666,-13.63692 0,-19.5428 -1.82687,-25.51818 -2.66667,-8.72222 -0.61599,12.31985 -0.88149,13.36399 -3.49286,13.73662 -2.00707,0.28641 -3.06452,-0.48649 -3.64846,-2.66666 -1.11788,-4.17365 -0.82555,-62.23347 0.33434,-66.40329 0.58487,-2.10263 1.88958,-3.33334 3.53376,-3.33334 2.33803,0 2.68362,1.23624 3.35459,12 0.92068,14.7694 1.37021,13.65824 2.42738,-6 0.762,-14.16958 1.02697,-15.33333 3.49125,-15.33333 2.27864,0 2.72548,1.02363 3.07089,7.03488 0.75867,13.20349 2.92911,5.58342 2.92911,-10.28364 0,-11.44833 0.48273,-16.15868 1.76506,-17.22292 3.48585,-2.893 4.90161,1.19412 4.90161,14.15037 0,7.9796 0.48072,12.18159 1.33333,11.65464 0.73333,-0.45322 1.33333,-4.33956 1.33333,-8.6363 0,-9.40412 0.86373,-12.03036 3.95659,-12.03036 1.83673,0 2.62389,1.78654 3.67173,8.33333 l 1.33378,8.33334 0.20029,-9.33334 c 0.27437,-12.7851 1.52734,-19.42587 3.83213,-20.3103 3.22465,-1.23742 4.29697,2.39879 4.3184,14.64364 0.012,6.87527 0.568,11.66666 1.35375,11.66666 0.81104,0 1.33333,-5.96365 1.33333,-15.22428 0,-16.20615 0.56549,-19.44238 3.3973,-19.44238 3.00369,0 3.57245,2.38317 4.56922,19.14551 0.86823,14.60067 0.98243,15.1343 1.16471,5.44266 0.13075,-6.95162 0.87651,-11.65891 2.11234,-13.33333 3.482,-4.71774 5.3772,-0.37796 5.88514,13.47627 0.50885,13.87911 2.50765,17.02279 3.13809,4.93555 0.34655,-6.64448 0.75541,-7.66666 3.06654,-7.66666 2.37448,0 2.71063,1.02263 3.0679,9.33333 0.62576,14.55622 2.5079,13.01174 3.20351,-2.62879 0.65619,-14.75423 2.01652,-18.45195 5.67208,-15.41811 1.66475,1.38162 2.05651,5.0896 2.05651,19.4648 0,18.52345 2.23595,26.35361 2.93815,10.28923 0.35057,-8.01985 0.69623,-9.04046 3.06185,-9.04046 2.49792,0 2.70885,1.11111 3.33333,17.559 0.75187,19.80308 2.66667,25.6233 2.66667,8.1056 0,-6.29558 0.36419,-12.39558 0.80932,-13.55556 1.11057,-2.89411 4.14122,-2.64898 5.81044,0.46997 1.47953,2.76453 1.99757,66.26081 0.57092,69.9786 -1.04684,2.72801 -5.33453,2.72801 -6.38136,0 -0.44513,-1.15998 -0.85149,-7.60998 -0.90304,-14.33333 -0.0619,-8.07034 -0.4831,-11.31813 -1.23962,-9.55762 -0.63024,1.46667 -1.18807,9.65247 -1.23962,18.19068 -0.0672,11.13222 -0.56521,15.69741 -1.76038,16.13692 -3.81302,1.40222 -5,-0.61976 -5,-8.5174 0,-4.9722 -0.50126,-7.65778 -1.33333,-7.14354 -0.77811,0.4809 -1.34184,8.14803 -1.35375,18.41203 -0.0208,17.9068 -0.85854,21.89261 -4.3221,20.56353 -2.55635,-0.98097 -3.65748,-6.94469 -3.65748,-19.80889 0,-6.11111 -0.55732,-10.5 -1.33334,-10.5 -0.77086,0 -1.33333,4.23617 -1.33333,10.04185 0,7.97746 -0.43882,10.21023 -2.13457,10.86095 -3.07844,1.18131 -4.48838,-1.91339 -4.51168,-9.9028 -0.0112,-3.85 -0.62042,-7 -1.35375,-7 -0.79827,0 -1.33333,5.24839 -1.33333,13.07849 0,9.58615 -0.53407,13.76962 -2,15.66667 -1.97979,2.56201 -2.02022,2.56201 -4,0 -1.39269,-1.80227 -2.06856,-6.25587 -2.22578,-14.66667 -0.21703,-11.61095 -0.25669,-11.43335 -1.02446,4.58818 -0.43927,9.16666 -1.27309,17.41666 -1.85291,18.33333 -1.47008,2.32409 -4.45268,2.08069 -5.42087,-0.44239 z m -8.1198,-44.05857 c -1.19911,-1.19911 -1.98635,-3.73103 -1.76191,-5.66667 0.33728,-2.90877 1.0805,-3.49904 4.40573,-3.49904 3.13538,0 4.09226,0.64975 4.42684,3.00597 0.26351,1.85568 -0.41704,3.32979 -1.77846,3.85221 -3.05207,1.17119 0.11198,3.04201 3.60151,2.12947 3.28209,-0.85828 4.9286,-5.0605 4.11591,-10.50459 -0.54439,-3.64682 -1.2665,-4.28626 -5.62795,-4.98368 -9.74031,-1.55754 -15.86143,-9.75881 -14.13844,-18.94313 0.61341,-3.26977 2.87771,-6.73925 7.03548,-10.78014 5.82975,-5.66587 6.13672,-6.33375 6.24804,-13.5941 0.2085,-13.59938 8.47855,-20.55193 11.42604,-9.60578 1.85498,6.88885 -0.0542,15.30148 -4.53358,19.97696 -4.15602,4.33794 -4.72685,10.78015 -0.95521,10.78015 1.36777,0 4.06777,1.24355 6,2.76344 5.17367,4.06961 4.94963,11.79079 -0.47456,16.35495 -3.64349,3.06579 -3.91747,3.86792 -3.17395,9.29247 0.67647,4.93537 0.33697,6.41383 -2.01229,8.76309 -3.37127,3.37127 -9.76172,3.69991 -12.8032,0.65842 z m 10.70232,-17.92704 c 1.50549,-2.43594 -0.71159,-13.23866 -2.71702,-13.23866 -2.56647,0 -3.77116,4.70579 -2.03511,7.94963 1.73846,3.24834 0.99494,3.49454 -1.8778,0.62179 -3.23478,-3.23477 -2.62658,-9.29326 1.23809,-12.33321 3.16455,-2.48923 4.6685,-8.23821 2.15515,-8.23821 -0.648,0 -3.348,2.40172 -6,5.33717 -8.67111,9.59789 -5.3613,19.02696 7.43283,21.17482 0.50672,0.0851 1.31846,-0.48793 1.80386,-1.27333 z m 7.21071,-4.3751 c 1.49932,-3.96678 -1.91608,-10.10434 -5.66297,-10.17648 -0.97344,-0.0187 -0.28345,6.66642 1.27284,12.33228 0.77689,2.82834 2.90041,1.78558 4.39013,-2.1558 z m -3.1813,-37.03357 c 2.44357,-4.72534 2.43869,-7.82999 -0.0123,-7.82999 -2.93997,0 -6.07561,5.39839 -6.07561,10.45993 0,3.96322 0.26255,4.31536 2.08792,2.80044 1.14835,-0.95305 2.94835,-3.39672 4,-5.43038 z m -74.48627,48.66054 c -0.51424,-0.51424 -0.93498,-11.57079 -0.93498,-24.57011 0,-18.53074 0.38606,-23.78326 1.78758,-24.32108 4.46819,-1.7146 4.94779,0.92028 4.57748,25.14849 -0.31049,20.31439 -0.67373,23.94385 -2.43008,24.28113 -1.13575,0.2181 -2.48576,-0.0242 -3,-0.53843 z m 137.33334,0 c -0.51424,-0.51424 -0.93498,-11.57079 -0.93498,-24.57011 0,-18.53074 0.38605,-23.78326 1.78757,-24.32108 4.4682,-1.7146 4.94779,0.92028 4.57748,25.14849 -0.31048,20.31439 -0.67372,23.94385 -2.43007,24.28113 -1.13576,0.2181 -2.48576,-0.0242 -3,-0.53843 z m -128.04609,-2.71276 c -0.48889,-0.48889 -0.88889,-9.80772 -0.88889,-20.70851 0,-16.46161 0.34173,-19.95076 2.01698,-20.59361 1.10933,-0.42569 2.90934,-0.0334 4,0.87177 1.57318,1.30563 1.98302,5.30957 1.98302,19.37345 0,9.75023 -0.3642,18.67676 -0.80932,19.83674 -0.81552,2.12519 -4.65362,2.86833 -6.30179,1.22016 z m 117.77777,-20.96846 c -0.36284,-17.52745 0.30919,-20.64266 2.12032,-21.33766 1.16619,-0.4475 2.66619,-0.47628 3.33334,-0.064 0.66716,0.41233 1.21301,10.01427 1.21301,21.33766 l -0.86179,19.90297 -2.47154,0.68501 -2.9135,-0.24307 z m 20.33334,11.64098 c -1.13799,-0.45919 -1.66667,-4.0489 -1.66667,-11.31664 l 0.85175,-9.60706 2.81492,-0.61516 c 3.49706,-0.76423 3.67864,0.69682 4.06365,9.54191 0.46917,10.77825 -1.14911,13.98001 -6.06365,11.99695 z m -158.11111,-1.33918 c -1.29309,-1.29309 -1.05088,-18.12441 0.29129,-20.2423 0.62665,-0.98883 2.26746,-1.58219 3.64625,-1.31859 2.17279,0.41539 2.55851,1.94332 2.89416,11.46452 0.38008,10.78171 0.32861,10.98526 -2.77778,10.98526 -1.74077,0 -3.56504,-0.4 -4.05392,-0.88889 z"
         id="path851"
         sodipodi:nodetypes="sssssssssssscssssssssssssssssssssssssssscsssssssssssssssssssssssssssssssssssssssssssssssssssssssssssssssssssssssssssssssssssssssssssssssssssssssssscccssscsssssssss" />
      <path
         style="fill:#494949;fill-opacity:1;stroke-width:1.33333"
         d="m 276.28173,324.63639 c -0.45147,-1.68551 -0.82904,-9.81456 -0.83906,-18.06456 -0.011,-9.09898 -0.54274,-15 -1.35154,-15 -0.7934,0 -1.33333,5.02616 -1.33333,12.41182 0,8.68028 -0.5743,13.18995 -1.91024,15 -3.30858,4.48279 -4.64078,0.61022 -5.04146,-14.65505 -0.26678,-10.16424 -0.8832,-14.70622 -2.0483,-15.09274 -1.21953,-0.40458 -1.66667,1.7809 -1.66667,8.14617 0,9.26313 -1.82098,12.30698 -4.86894,8.13866 -1.11985,-1.53149 -1.79772,-6.13318 -1.79772,-12.2037 0,-5.60789 -0.56607,-9.74516 -1.33334,-9.74516 -0.79632,0 -1.34155,5.23583 -1.35375,13 -0.0215,13.72033 -1.02077,17.24238 -4.51168,15.9028 -1.81789,-0.69759 -2.13457,-3.61511 -2.13457,-19.66575 l -3,-21.87788 7.93226,7.36183 c 8.24127,7.64862 15.59615,9.91792 28.40108,9.93264 10.5086,0.0121 11.96401,-0.33422 19.99999,-4.7587 31.31575,-17.24192 29.77222,-61.82909 -2.66666,-77.03072 -5.83813,-2.73588 -9.37225,-3.43657 -17.33333,-3.43657 -17.44863,0 -31.19367,8.52378 -38.8615,24.09935 -5.76374,11.70782 -5.97902,23.96223 -0.63032,35.88071 3.08187,6.86734 3.56033,9.53937 3.22222,17.99524 -0.35624,8.90914 -0.67131,9.93038 -3.06374,9.93038 -2.48102,0 -2.72335,-1.16029 -3.48087,-16.66667 -0.44782,-9.16666 -1.01402,-16.96666 -1.25823,-17.33333 -0.2442,-0.36667 -0.77781,5.33333 -1.18578,12.66667 -0.69826,12.55094 -0.43168,12.8059 -3.25564,13.20697 0,0 -1.48681,0.0908 -1.48419,-0.91925 0.0289,-11.14553 -2.00195,-34.23684 -2.00195,-34.23684 0,-31.90207 0.25002,-36.23052 2.13456,-36.95369 3.35896,-1.28895 4.48969,2.084 4.51169,13.45836 0.0304,15.70424 1.84004,10.94847 2.64924,-6.96216 0.65374,-14.46967 0.89668,-15.59339 3.37117,-15.59339 2.27865,0 2.72549,1.02363 3.07089,7.03487 0.76357,13.28881 2.92911,5.53431 2.92911,-10.48874 0,-13.40675 0.34184,-16.09433 2.13457,-16.78227 3.42345,-1.3137 4.48991,2.13019 4.51168,14.56947 0.012,6.87528 0.56801,11.66667 1.35375,11.66667 0.75519,0 1.34219,-3.9025 1.35375,-9 0.0224,-9.88849 1.25906,-13.15096 4.51169,-11.90281 1.60649,0.61647 2.13456,2.67116 2.13456,8.30541 0,5.3941 0.46578,7.33225 1.66667,6.93511 1.13126,-0.37411 1.88083,-5.00971 2.33333,-14.43023 0.54752,-11.39861 1.05287,-13.95271 2.82761,-14.29117 2.91721,-0.55634 3.79884,3.36252 3.82085,16.98369 0.0281,17.36698 2.41428,11.2366 2.91647,-7.49263 0.23929,-8.92429 0.85919,-16.64841 1.37757,-17.16472 0.51837,-0.51632 1.86837,-0.58346 3,-0.14922 1.70299,0.6535 2.0575,3.66849 2.0575,17.49805 0,10.25012 0.51538,16.70852 1.33334,16.70852 0.73333,0 1.36791,-3.15 1.41017,-7 0.11757,-10.71131 1.67103,-17.66667 3.94578,-17.66667 1.56993,0 2.11475,2.72547 2.64405,13.22686 0.44846,8.89765 1.21217,13.40718 2.33333,13.77778 1.17771,0.38929 1.67265,-1.3397 1.68708,-5.89353 0.0235,-7.42031 1.48996,-10.50679 4.45196,-9.37016 1.55717,0.59754 2.17292,3.19758 2.4679,10.42097 0.25394,6.21805 0.98298,9.81983 2.05972,10.17587 1.26588,0.41857 1.66667,-2.98369 1.66667,-14.14799 0,-15.1683 1.31783,-18.99509 4.86894,-14.13866 1.28553,1.75807 1.79773,7.30203 1.79773,19.45834 0,17.93198 2.25166,25.23606 2.93815,9.53099 0.35057,-8.01986 0.69623,-9.04047 3.06185,-9.04047 2.50407,0 2.70731,1.11111 3.33333,18.22252 0.76913,21.02311 2.66667,26.3573 2.66667,7.49629 0,-9.51493 0.48986,-13.13218 1.94159,-14.337 4.28785,-3.5586 4.72507,-0.16294 4.72507,36.69688 0,35.0098 -0.10886,36.58798 -2.52401,36.58798 -3.54507,0 -4.14265,-2.45196 -4.14265,-16.99794 0,-18.56338 -1.87637,-13.79091 -2.66222,6.77127 -0.62859,16.44741 -0.84007,17.56 -3.33778,17.56 -2.31994,0 -2.7595,-1.12687 -3.38061,-8.66667 -1.08914,-13.22137 -2.47195,-6.75826 -2.90109,13.55942 -0.21173,10.02434 -0.80909,18.64848 -1.32746,19.16472 -0.51838,0.51625 -1.86838,0.58334 -3,0.14909 -1.69104,-0.64891 -2.05751,-3.54785 -2.05751,-16.27583 0,-11.79424 -0.39734,-15.35482 -1.66667,-14.93483 -1.09381,0.36191 -1.8009,4.08826 -2.05723,10.84158 -0.29735,7.8342 -0.88636,10.48039 -2.4679,11.08728 -3.03331,1.164 -4.43133,-1.98576 -4.45445,-10.03587 -0.0146,-5.08737 -0.49473,-6.95419 -1.68708,-6.55969 -1.14083,0.37744 -1.877,5.145 -2.33333,15.11111 -0.52873,11.54705 -1.06806,14.55969 -2.60656,14.55969 -2.65993,0 -3.77038,-4.80689 -3.9272,-17 -0.22553,-17.53427 -2.6934,-11.69848 -3.09421,7.31687 -0.31673,15.02656 -0.69325,17.7118 -2.53297,18.06457 -1.32748,0.25455 -2.47755,-0.76763 -2.9818,-2.65021 z m -7.1906,-43.07071 c -5.62331,-4.02078 -2.33239,-12.7489 3.43521,-9.11079 3.00371,1.89469 3.30278,3.85514 0.94742,6.2105 -2.47556,2.47556 -0.58928,4.13578 3.29739,2.9022 3.78629,-1.20172 5.3353,-4.86821 4.42545,-10.47498 -0.60618,-3.73543 -1.43889,-4.88976 -3.61326,-5.00878 -2.25277,-0.12332 -2.35255,-0.27828 -0.49221,-0.76444 2.48514,-0.64943 2.99455,-4.77483 1.50764,-12.20937 -0.70902,-3.54508 -1.18004,-3.93882 -3.33333,-2.78642 -2.86214,1.53177 -3.30953,6.46839 -0.84097,9.27951 0.91666,1.04388 0.31666,0.77089 -1.33334,-0.60665 -3.93562,-3.28573 -3.80492,-8.07425 0.33334,-12.21251 3.14793,-3.14793 4.58209,-8.54546 2.27059,-8.54546 -0.5845,0 -3.2845,2.2753 -6,5.05622 -3.80867,3.90043 -4.93726,6.13317 -4.93726,9.76758 0,4.66216 3.32427,9.19199 8,10.90123 1.44953,0.52989 1.50618,0.76009 0.20583,0.83638 -3.35744,0.19698 -9.34235,-5.25835 -10.8799,-9.91718 -2.13871,-6.48033 -0.002,-12.10441 7.33341,-19.30371 5.44755,-5.34637 5.89071,-6.26688 5.17418,-10.74781 -1.72487,-10.78673 8.69242,-23.75474 10.91911,-13.59271 0.44188,2.01667 1.05914,4.48092 1.37168,5.47612 0.97464,3.10351 -2.04391,11.8904 -5.49271,15.98907 -4.70951,5.59692 -4.41735,10.41047 0.70008,11.53445 8.54861,1.87759 10.64091,11.56624 3.94398,18.26316 -3.60648,3.60648 -3.96781,4.66995 -3.24952,9.5641 0.53055,3.61499 0.20686,6.30176 -0.94233,7.82181 -2.56223,3.38908 -9.14598,4.25577 -12.75048,1.67848 z m 18.33334,-25.4749 c 0,-2.14188 -4.69054,-7.18562 -6.68243,-7.18562 -0.82276,0 -1.03948,2.21078 -0.5555,5.66667 1.32852,9.48639 1.75929,10.08767 4.67031,6.51895 1.41219,-1.73124 2.56762,-3.98124 2.56762,-5 z m -2.66667,-38.4613 c 0,-1.77848 -0.55196,-3.57473 -1.22657,-3.99167 -2.24508,-1.38754 -6.7751,6.08844 -6.73435,11.11383 l 0.0391,4.82019 3.96092,-4.35437 c 2.1785,-2.39491 3.96091,-5.80949 3.96091,-7.58798 z m -76.39835,53.09955 c -0.51424,-0.51424 -0.88112,-11.64213 -0.44884,-24.71276 l 0.7513,-22.71712 2.12597,-1.06066 h 3.36341 l -0.36341,24.31616 c -0.30944,20.70496 -0.67009,24.37505 -2.42843,24.71276 -1.13576,0.21813 -2.48576,-0.0241 -3,-0.53838 z m 137.33333,0 c -0.51424,-0.51424 -0.93498,-11.63498 -0.93498,-24.71276 l 0.74699,-23.22999 2.61642,-0.54779 2.41723,0.54779 0.58277,23.76837 c 0.50756,20.70105 -0.67009,24.37505 -2.42843,24.71276 -1.13576,0.21813 -2.48576,-0.0241 -3,-0.53838 z m -128.04609,-2.71276 c -0.48889,-0.48889 -0.88889,-9.7247 -0.88889,-20.52401 0,-16.71868 0.31494,-19.75598 2.12032,-20.44878 1.16618,-0.4475 2.66618,-0.47628 3.33334,-0.064 0.66715,0.41233 1.21301,10.01427 1.21301,21.33766 0,19.07521 -0.17962,20.58798 -2.44445,20.58798 -1.34444,0 -2.84444,-0.4 -3.33333,-0.88889 z m 118.66667,-1.33333 c -0.4889,-0.48889 -0.8889,-9.78889 -0.8889,-20.66667 l 1.5625,-19.16841 1.77084,-0.60937 h 3.33333 v 20.66667 c 0,19.15152 -0.17921,20.66667 -2.44444,20.66667 -1.34445,0 -2.84445,-0.4 -3.33333,-0.88889 z M 198.09113,247.74325 c 0,-10.91002 0.77214,-12.81473 4.5995,-11.34604 1.79606,0.68922 2.10636,2.60005 1.78699,11.00433 -0.35702,9.39484 -0.61523,10.20277 -3.38649,10.59635 -2.8969,0.41143 -3,0.059 -3,-10.25464 z m 156.27725,0.16191 c 0.36039,-9.56298 0.61307,-10.3651 3.38942,-10.7594 2.89846,-0.41165 3,-0.0619 3,10.33333 0,10.63528 -0.0391,10.7594 -3.38942,10.7594 -3.37228,0 -3.38745,-0.0523 -3,-10.33333 z"
         id="path849"
         sodipodi:nodetypes="sssssssssssssscssssssssssssssssssssssssssssssssssssssssssssssssssssssssssssssssssssssssssssssssssssssssssssssssssssssssssssscssscscccsscsscccsssssssssssscccssssssssssssss" />
      <path
         style="fill:#333333;fill-opacity:1;stroke-width:1.33333"
         d="m 276.5133,322.32067 c -0.46529,-2.32644 -0.84598,-10.4549 -0.84598,-18.06323 0,-8.33333 -0.53012,-13.83333 -1.33333,-13.83333 -0.78351,0 -1.33333,4.63773 -1.33333,11.24653 0,13.20747 -1.67071,19.23989 -4.64495,16.77149 -1.41716,-1.17613 -2.03488,-5.37306 -2.31123,-15.7031 -0.26254,-9.81373 -0.88364,-14.26601 -2.04382,-14.65089 -1.21953,-0.40458 -1.66667,1.7809 -1.66667,8.14617 0,9.26313 -1.82098,12.30698 -4.86894,8.13866 -1.11985,-1.53149 -1.79773,-6.13318 -1.79773,-12.2037 0,-5.60789 -0.56606,-9.74516 -1.33333,-9.74516 -0.79451,0 -1.33333,5.07476 -1.33333,12.55761 0,13.50832 -0.64924,16.77572 -3.33334,16.77572 -2.81424,0 -3.33333,-3.36063 -3.33333,-21.58051 l -3.42931,-21.47759 8.36157,8.44577 c 9.34078,9.43484 15.59614,9.91792 28.40107,9.93264 9.73527,0.0112 12.40769,-0.51455 18.95259,-3.72851 30.9268,-15.18701 31.77916,-60.75433 1.43033,-76.46495 -10.82272,-5.60257 -20.82236,-6.84993 -31.3807,-3.91446 -27.08594,7.53057 -35.05429,34.22758 -27.51163,61.09051 1.23583,4.40136 4.5815,7.60071 2.24332,15.6971 -2.63987,9.14105 -0.67322,10 -3.06724,10 -2.48405,0 -2.71232,-1.11111 -3.33333,-16.22523 -0.78399,-19.08058 -2.65761,-23.49452 -2.68709,-6.33032 -0.0217,12.65256 -1.07629,16.10997 -4.51168,14.79169 -1.88282,-0.72251 -2.13457,-4.98198 -2.13457,-36.1156 0,-35.55687 0.45296,-38.95093 4.72508,-35.40539 1.40372,1.16498 1.97841,4.7981 2.0745,13.11478 0.18197,15.75049 2.22545,8.94134 2.40085,-8 0.092,-8.88679 0.67603,-13.28749 1.89797,-14.30161 2.911,-2.41592 4.8995,0.97972 4.92202,8.40502 0.0147,4.83902 0.38404,6.17067 1.31292,4.73333 0.71087,-1.1 1.30168,-9.06883 1.31291,-17.70851 0.0171,-13.16088 0.36661,-15.84136 2.15499,-16.52762 3.42345,-1.3137 4.48991,2.13019 4.51168,14.56947 0.0249,14.20638 2.20073,15.526 2.89606,1.7564 0.53568,-10.608 1.17491,-12.20062 4.40019,-10.96297 1.51131,0.57995 2.0575,2.74738 2.0575,8.16472 0,5.66683 0.46327,7.37518 2,7.37518 1.65117,0 2,-2.44909 2,-14.04185 0,-11.42607 0.38328,-14.18892 2.0575,-14.83138 3.37828,-1.29637 3.92098,0.46893 4.40078,14.31486 0.25205,7.27377 0.94179,13.22504 1.53276,13.22504 0.59097,0 1.28475,-7.75056 1.54173,-17.22346 0.25697,-9.4729 0.89135,-17.64702 1.40973,-18.16472 0.51837,-0.51769 1.86837,-0.58596 3,-0.15172 1.70227,0.65323 2.0575,3.66072 2.0575,17.41936 0,9.6483 0.55976,16.97578 1.33333,17.45387 0.82079,0.50727 1.37133,-1.89709 1.43217,-6.25464 0.1638,-11.73266 1.66591,-19.07869 3.90117,-19.07869 1.59856,0 2.13381,2.65483 2.66666,13.22686 0.44846,8.89764 1.21218,13.40718 2.33334,13.77778 1.17771,0.38929 1.67265,-1.3397 1.68708,-5.89353 0.0235,-7.42031 1.48996,-10.50679 4.45196,-9.37017 1.55717,0.59755 2.17292,3.19759 2.4679,10.42097 0.24786,6.06934 0.99227,9.82287 2.01516,10.16102 1.19516,0.3951 1.72156,-3.4085 2,-14.45137 0.26436,-10.48467 0.87617,-15.15296 2.03636,-15.53797 2.95269,-0.97983 4.34154,6.16704 4.34154,22.34118 0,9.11809 0.56555,16.18405 1.33333,16.65856 0.83737,0.51752 1.33333,-2.44455 1.33333,-7.96316 0,-6.82706 0.47616,-8.96992 2.13457,-9.60631 3.56784,-1.36911 4.48454,2.23014 4.64459,18.23614 0.1946,19.46122 2.23357,27.25477 2.42127,9.25484 0.0876,-8.39889 0.74596,-13.58356 1.93064,-15.2037 4.2488,-5.81059 4.86893,-1.22192 4.86893,36.02755 0,35.00979 -0.10886,36.58797 -2.52401,36.58797 -3.56988,0 -4.14265,-2.44236 -4.14265,-17.6646 0,-7.39558 -0.42113,-13.02538 -0.93585,-12.51066 -0.51472,0.51472 -1.26472,9.16472 -1.66667,19.22223 -0.68556,17.15387 -0.89597,18.28636 -3.39748,18.28636 -2.34129,0 -2.71523,-1.02154 -3.06463,-8.37208 -0.73028,-15.36316 -2.93537,-7.20303 -2.93537,10.8626 0,12.71556 -0.5038,18.35545 -1.79773,20.12501 -3.59121,4.91127 -4.86894,1.026 -4.86894,-14.80533 0,-11.69782 -0.39785,-15.23412 -1.66667,-14.8143 -1.09381,0.36191 -1.8009,4.08826 -2.05723,10.84158 -0.29735,7.8342 -0.88636,10.48039 -2.4679,11.08728 -3.03331,1.164 -4.43134,-1.98576 -4.45445,-10.03587 -0.0146,-5.08737 -0.49473,-6.95419 -1.68708,-6.55969 -1.14084,0.37744 -1.877,5.145 -2.33334,15.11111 -0.53628,11.71216 -1.05526,14.55969 -2.65357,14.55969 -2.50538,0 -3.65284,-5.25813 -3.85534,-17.66667 -0.27644,-16.93935 -2.72588,-10.66975 -3.11905,7.98354 -0.31623,15.00265 -0.69514,17.71216 -2.52606,18.06324 -1.49241,0.28616 -2.41386,-0.8862 -3,-3.81688 z m -7.21597,-41.97217 c -3.4696,-2.4302 -3.83967,-6.20392 -0.85158,-8.68381 4.03492,-3.34868 8.98062,2.14323 5.27087,5.85298 -1.29182,1.29182 -1.56028,2.38462 -0.71426,2.90749 2.56359,1.58438 6.90384,-0.92897 8.85597,-5.12831 1.55576,-3.34668 1.80783,-3.525 1.23367,-0.87274 -0.39688,1.83333 -0.72979,3.68702 -0.7398,4.11931 -0.0232,1.00352 -6.28884,3.88069 -8.45094,3.88069 -0.90232,0 -2.97409,-0.93403 -4.60393,-2.07561 z m -60.69502,-10.76719 c -0.51424,-0.51424 -0.93498,-11.63497 -0.93498,-24.71275 l 0.91554,-23.21437 2.8,-1.40853 2.8,2.1128 -0.15213,23.04847 c -0.13668,20.70682 -0.67009,24.37505 -2.42843,24.71276 -1.13576,0.21813 -2.48576,-0.0241 -3,-0.53838 z m 137.33333,0 c -0.51424,-0.51424 -0.93498,-11.63497 -0.93498,-24.71275 l 0.74699,-23.22999 2.51682,-0.99598 2.51683,0.99598 0.58277,23.76836 c 0.50757,20.70105 -0.67009,24.37505 -2.42843,24.71276 -1.13576,0.21813 -2.48576,-0.0241 -3,-0.53838 z m -65.14965,-3.49054 c -0.48763,-2.38752 -0.18776,-3.66666 0.85958,-3.66666 2.25915,0 6.02175,-4.43944 6.02175,-7.10499 0,-2.37458 -4.50607,-7.56167 -6.5689,-7.56167 -0.67956,0 -1.50996,1.05 -1.84533,2.33333 -0.58073,2.22222 -0.61713,2.22222 -0.76443,0 -0.0851,-1.28333 -0.6812,-2.33333 -1.32474,-2.33333 -2.33731,0 -4.46195,4.06374 -3.83617,7.33733 0.51883,2.71405 0.29474,3.06536 -1.17643,1.8444 -2.84655,-2.36243 -2.13742,-7.64952 1.516,-11.30295 1.83471,-1.8347 3.33334,-4.88153 3.33334,-6.77694 v -3.4436 l -4.26325,3.28771 c -2.34478,1.80823 -5.42357,5.52359 -6.84174,8.25635 -2.15154,4.14592 -2.31653,5.54359 -0.99644,8.44089 1.40499,3.08362 1.34997,3.27963 -0.49159,1.75126 -1.35825,-1.12724 -2.07365,-3.96862 -2.07365,-8.23596 0,-6.03017 0.53822,-7.10044 7.23244,-14.38208 3.97784,-4.3269 7.50318,-7.59635 7.83409,-7.26544 1.2107,1.2107 7.60014,-7.8053 7.60014,-10.72439 0,-6.15964 -4.56688,-5.496 -7.42942,1.07963 l -1.79954,4.13379 -0.0522,-4.25898 c -0.0332,-2.713 1.15889,-5.61696 3.28415,-8 3.25412,-3.64884 3.38555,-3.67724 5.33333,-1.15285 4.32861,5.61002 1.72816,20.15945 -4.25586,23.81141 -0.96093,0.58644 -1.74714,3.15144 -1.74714,5.7 0,4.09411 0.4714,4.72803 4.04783,5.44332 8.38671,1.67734 10.67264,11.51257 4.10231,17.65017 -2.11742,1.97797 -4.09722,4.76869 -4.39956,6.20161 -0.44224,2.09595 -0.69612,1.88845 -1.29858,-1.06136 z m -62.89644,0.77778 c -0.48889,-0.48889 -0.88889,-9.41541 -0.88889,-19.83673 0,-14.96261 0.40837,-19.28677 1.94159,-20.55923 3.98442,-3.30678 4.72507,-0.0625 4.72507,20.69688 0,19.0752 -0.17961,20.58797 -2.44444,20.58797 -1.34445,0 -2.84445,-0.4 -3.33333,-0.88889 z m 118.36321,-2.17532 c -0.3653,-0.95198 -0.49648,-10.10197 -0.29148,-20.33332 0.36358,-18.14694 0.44618,-18.6129 3.37271,-19.02853 0,0 2.35931,-0.4484 2.43652,0.36943 0.6527,6.9134 0.72921,19.99705 0.72921,19.99705 0,19.97742 -0.26776,20.72625 -2.87424,20.72625 -1.48969,0 -3.00741,-0.7789 -3.37272,-1.73088 z m -56.37491,-7.60245 c 0,-1.83333 0.30263,-2.58333 0.67251,-1.66667 0.36989,0.91667 0.36989,2.41667 0,3.33334 -0.36988,0.91666 -0.67251,0.16666 -0.67251,-1.66667 z M 198.334,246.51685 c 0,-10.63528 0.0391,-10.7594 3.38941,-10.7594 3.37228,0 3.38745,0.0523 3,10.33333 -0.36038,9.56298 -0.61307,10.3651 -3.38941,10.7594 -2.89847,0.41165 -3,0.0619 -3,-10.33333 z m 156.27724,0.2406 c 0.36039,-9.56298 0.61307,-10.3651 3.38942,-10.7594 2.89846,-0.41165 3,-0.0619 3,10.33333 0,10.63528 -0.0391,10.7594 -3.38942,10.7594 -3.37228,0 -3.38745,-0.0523 -3,-10.33333 z"
         id="path847"
         sodipodi:nodetypes="sssssssssssssscssssssssssssssssssssssssssssssssssssssssssssssssssssssssssssssssssssssssssssssssscscccsscsscccsssssssssssssscssssssssscsssssssssssssssssscssssssssssssssssss" />
    </g>
  </g>
</svg>
